<svg width="1024" height="1024" viewBox="0 0 1024 1024" fill="none" xmlns="http://www.w3.org/2000/svg">
  <rect width="1024" height="1024" rx="192" fill="#355394"/>
  <circle cx="512" cy="364" r="124" fill="#E6E6E6"/>
  <rect x="488" y="88" width="48" height="104" fill="#F0D352"/>
  <rect x="488" y="612" width="48" height="104" fill="#F0D352"/>
  <rect x="205" y="340" width="104" height="48" fill="#F0D352"/>
  <rect x="715" y="340" width="104" height="48" fill="#F0D352"/>
  <rect x="270" y="194" width="48" height="104" transform="rotate(-45 270 194)" fill="#F0D352"/>
  <rect x="632" y="227.941" width="48" height="104" transform="rotate(-45 632 227.941)" fill="#F0D352"/>
  <rect x="303.941" y="570" width="48" height="104" transform="rotate(45 303.941 570)" fill="#F0D352"/>
  <rect x="665.941" y="536.059" width="48" height="104" transform="rotate(45 665.941 536.059)" fill="#F0D352"/>
  <circle cx="224" cy="758" r="56" fill="#E6E6E6"/>
  <circle cx="800" cy="758" r="56" fill="#E6E6E6"/>
  <rect x="408" y="726" width="208" height="64" rx="32" fill="#E6E6E6"/>
</svg>
