<svg width="1400" height="820" viewBox="0 0 1400 820" fill="none" xmlns="http://www.w3.org/2000/svg">
  <rect width="1400" height="820" rx="40" fill="#071722"/>
  <rect y="640" width="1400" height="180" fill="#0B1F2D"/>

  <g opacity="0.35">
    <circle cx="700" cy="180" r="180" fill="#12354B"/>
    <circle cx="700" cy="180" r="120" fill="#16435E"/>
  </g>

  <rect x="170" y="170" width="320" height="560" rx="52" fill="#0A1219" stroke="#31556C" stroke-width="6"/>
  <rect x="194" y="194" width="272" height="512" rx="38" fill="#0E2737"/>
  <rect x="220" y="220" width="220" height="360" rx="22" fill="#142F42"/>
  <circle cx="405" cy="270" r="14" fill="#EAF4FF"/>
  <rect x="205" y="610" width="250" height="72" rx="16" fill="#12283A"/>
  <rect x="250" y="744" width="160" height="24" rx="12" fill="#1B3A52"/>

  <rect x="910" y="170" width="320" height="560" rx="52" fill="#0A1219" stroke="#31556C" stroke-width="6"/>
  <rect x="934" y="194" width="272" height="512" rx="38" fill="#0E2737"/>
  <rect x="960" y="220" width="220" height="360" rx="22" fill="#142F42"/>
  <circle cx="995" cy="270" r="14" fill="#EAF4FF"/>
  <rect x="945" y="610" width="250" height="72" rx="16" fill="#12283A"/>
  <rect x="990" y="744" width="160" height="24" rx="12" fill="#1B3A52"/>

  <g>
    <circle cx="405" cy="270" r="24" fill="#FFFFFF" fill-opacity="0.95"/>
    <circle cx="405" cy="270" r="52" stroke="#FFFFFF" stroke-opacity="0.45" stroke-width="8"/>
    <circle cx="405" cy="270" r="82" stroke="#FFFFFF" stroke-opacity="0.22" stroke-width="8"/>
  </g>

  <g>
    <circle cx="995" cy="270" r="18" fill="#8ED8FF"/>
    <circle cx="995" cy="270" r="42" stroke="#8ED8FF" stroke-opacity="0.38" stroke-width="8"/>
  </g>

  <path d="M465 265C602 220 784 220 930 265" stroke="#7DD3FC" stroke-width="6" stroke-dasharray="14 16"/>
  <path d="M468 290C610 332 780 332 927 290" stroke="#9CA3AF" stroke-width="4" stroke-dasharray="8 18"/>

  <text x="700" y="110" text-anchor="middle" fill="#D7F3FF" font-family="IBM Plex Mono, monospace" font-size="34">
    MORSE LINK (OFFLINE)
  </text>
</svg>
